<svg width="38" height="38" viewBox="0 0 38 38" fill="none" xmlns="http://www.w3.org/2000/svg">
<path d="M16.6667 29.3333C19.477 29.3328 22.2064 28.3919 24.4203 26.6607L31.3806 33.621L33.6194 31.3822L26.6591 24.4218C28.3913 22.2078 29.3327 19.4778 29.3333 16.6667C29.3333 9.68258 23.6507 4 16.6667 4C9.68258 4 4 9.68258 4 16.6667C4 23.6507 9.68258 29.3333 16.6667 29.3333ZM16.6667 7.16667C21.9059 7.16667 26.1667 11.4274 26.1667 16.6667C26.1667 21.9059 21.9059 26.1667 16.6667 26.1667C11.4274 26.1667 7.16667 21.9059 7.16667 16.6667C7.16667 11.4274 11.4274 7.16667 16.6667 7.16667Z" fill="white"/>
<path d="M18.0691 13.5945C18.6691 14.1962 19.0001 14.991 19.0001 15.8333H22.1667C22.1681 15.0012 22.0046 14.177 21.6855 13.4084C21.3665 12.6399 20.8982 11.9422 20.3079 11.3557C17.9107 8.96168 13.7545 8.96168 11.3589 11.3557L13.5946 13.5977C14.7979 12.3975 16.8721 12.4007 18.0691 13.5945Z" fill="white"/>
</svg>
